<svg width="16" height="16" viewBox="0 0 16 16" fill="none" xmlns="http://www.w3.org/2000/svg">
<path d="M12.667 14.667C13.7713 14.6668 14.6668 13.7713 14.667 12.667L14.667 3.33301C14.6668 2.2287 13.7713 1.33318 12.667 1.33301L3.33301 1.33301C2.2287 1.33318 1.33318 2.2287 1.33301 3.33301L1.33301 12.667C1.33318 13.7713 2.2287 14.6668 3.33301 14.667L12.667 14.667ZM6.66699 2.66699L12.667 2.66699C13.0349 2.66717 13.3328 2.96508 13.333 3.33301L13.333 12.667C13.3328 13.0349 13.0349 13.3328 12.667 13.333L6.66699 13.333L6.66699 2.66699ZM3.33301 13.333C2.96508 13.3328 2.66717 13.0349 2.66699 12.667L2.66699 3.33301C2.66717 2.96508 2.96508 2.66717 3.33301 2.66699L5.33301 2.66699L5.33301 13.333H3.33301ZM11.1377 9.52832L9.60938 8L11.1377 6.47168L10.1953 5.52832L7.72363 8L10.1953 10.4717L11.1377 9.52832Z" fill="#01011A"/>
</svg>
