<svg width="17" height="16" viewBox="0 0 17 16" fill="none" xmlns="http://www.w3.org/2000/svg">
<path d="M4.28711 1.33325C3.18265 1.33325 2.28729 2.22883 2.28711 3.33325L2.28711 12.6663C2.28711 13.7708 3.18254 14.6663 4.28711 14.6663L13.6201 14.6663C14.7245 14.6661 15.6201 13.7707 15.6201 12.6663L15.6201 3.33325C15.6199 2.22894 14.7244 1.33343 13.6201 1.33325L4.28711 1.33325ZM13.6201 2.66626C13.988 2.66644 14.2869 2.96532 14.2871 3.33325L14.2871 12.6663C14.2871 13.0343 13.9882 13.3331 13.6201 13.3333L12.0918 13.3333L12.0918 2.66626L13.6201 2.66626ZM10.7588 13.3333L4.28711 13.3333C3.91892 13.3333 3.62012 13.0344 3.62012 12.6663L3.62012 3.33325C3.62029 2.96521 3.91903 2.66626 4.28711 2.66626L10.7588 2.66626L10.7588 13.3333ZM6.28711 6.47095L7.81543 7.99927L6.28711 9.52856L7.22949 10.4709L9.70117 7.99927L7.22949 5.52856L6.28711 6.47095Z" fill="#01011A"/>
</svg>
