<svg width="16" height="16" viewBox="0 0 16 16" fill="none" xmlns="http://www.w3.org/2000/svg">
<g opacity="0.6">
<path d="M10.5763 9.54705H10.0343L9.8422 9.3618C10.5146 8.57964 10.9194 7.5642 10.9194 6.45957C10.9194 3.99645 8.92281 1.99988 6.45969 1.99988C3.99657 1.99988 2 3.99645 2 6.45957C2 8.92269 3.99657 10.9193 6.45969 10.9193C7.56432 10.9193 8.57976 10.5145 9.36192 9.84207L9.54717 10.0342V10.5762L12.9777 13.9999L14 12.9776L10.5763 9.54705ZM6.45969 9.54705C4.75129 9.54705 3.37221 8.16797 3.37221 6.45957C3.37221 4.75116 4.75129 3.37209 6.45969 3.37209C8.1681 3.37209 9.54717 4.75116 9.54717 6.45957C9.54717 8.16797 8.1681 9.54705 6.45969 9.54705Z" fill="black"/>
</g>
</svg>
