<svg width="16" height="16" viewBox="0 0 16 16" fill="none" xmlns="http://www.w3.org/2000/svg">
<path d="M8.0001 8.50006C7.9201 8.50006 7.8501 8.48006 7.7801 8.45006L1.2801 5.20006C1.19557 5.15912 1.12427 5.09519 1.07439 5.0156C1.0245 4.93602 0.998047 4.84399 0.998047 4.75006C0.998047 4.65613 1.0245 4.5641 1.07439 4.48451C1.12427 4.40493 1.19557 4.341 1.2801 4.30006L7.7801 1.05006C7.9201 0.980059 8.0901 0.980059 8.2301 1.05006L14.7301 4.30006C14.8146 4.341 14.8859 4.40493 14.9358 4.48451C14.9857 4.5641 15.0122 4.65613 15.0122 4.75006C15.0122 4.84399 14.9857 4.93602 14.9358 5.0156C14.8859 5.09519 14.8146 5.15912 14.7301 5.20006L8.2301 8.45006C8.1601 8.49006 8.0801 8.50006 8.0101 8.50006H8.0001ZM2.6201 4.75006L8.0001 7.44006L13.3801 4.75006L8.0001 2.06006L2.6201 4.75006Z" fill="#01011A"/>
<path d="M8.0001 11.7501C7.9201 11.7501 7.8501 11.7301 7.7801 11.7001L1.2801 8.45011C1.19557 8.40917 1.12427 8.34524 1.07439 8.26565C1.0245 8.18607 0.998047 8.09404 0.998047 8.00011C0.998047 7.90618 1.0245 7.81415 1.07439 7.73456C1.12427 7.65498 1.19557 7.59105 1.2801 7.55011L4.5301 5.93011C4.7801 5.81011 5.0801 5.91011 5.2001 6.15011C5.3201 6.40011 5.2201 6.70011 4.9801 6.82011L2.6201 8.00011L8.0001 10.6901L13.3801 8.00011L11.0201 6.82011C10.9608 6.79146 10.908 6.75117 10.8646 6.70164C10.8213 6.65211 10.7884 6.59436 10.7678 6.53182C10.7473 6.46929 10.7396 6.40327 10.7451 6.33768C10.7507 6.2721 10.7694 6.20831 10.8001 6.15011C10.9201 5.90011 11.2201 5.80011 11.4701 5.93011L14.7201 7.55011C14.8046 7.59105 14.8759 7.65498 14.9258 7.73456C14.9757 7.81415 15.0022 7.90618 15.0022 8.00011C15.0022 8.09404 14.9757 8.18607 14.9258 8.26565C14.8759 8.34524 14.8046 8.40917 14.7201 8.45011L8.2201 11.7001C8.1501 11.7401 8.0701 11.7501 8.0001 11.7501Z" fill="#01011A"/>
<path d="M8.0001 15.0001C7.9201 15.0001 7.8501 14.9801 7.7801 14.9501L1.2801 11.7001C1.19557 11.6592 1.12427 11.5952 1.07439 11.5157C1.0245 11.4361 0.998047 11.344 0.998047 11.2501C0.998047 11.1562 1.0245 11.0642 1.07439 10.9846C1.12427 10.905 1.19557 10.8411 1.2801 10.8001L4.5301 9.18011C4.7801 9.06011 5.0801 9.16011 5.2001 9.40011C5.3201 9.65011 5.2201 9.95011 4.9801 10.0701L2.6201 11.2501L8.0001 13.9401L13.3801 11.2501L11.0201 10.0701C10.9608 10.0415 10.908 10.0012 10.8646 9.95164C10.8213 9.90211 10.7884 9.84436 10.7678 9.78182C10.7473 9.71929 10.7396 9.65326 10.7451 9.58768C10.7507 9.5221 10.7694 9.45831 10.8001 9.40011C10.9201 9.15011 11.2201 9.05011 11.4701 9.18011L14.7201 10.8001C14.8046 10.8411 14.8759 10.905 14.9258 10.9846C14.9757 11.0642 15.0022 11.1562 15.0022 11.2501C15.0022 11.344 14.9757 11.4361 14.9258 11.5157C14.8759 11.5952 14.8046 11.6592 14.7201 11.7001L8.2201 14.9501C8.1501 14.9901 8.0701 15.0001 8.0001 15.0001Z" fill="#01011A"/>
</svg>
