<svg width="24" height="24" viewBox="0 0 24 24" fill="none" xmlns="http://www.w3.org/2000/svg">
<path d="M12 1.99988C6.47 1.99988 2 6.46988 2 11.9999C2 17.5299 6.47 21.9999 12 21.9999C17.53 21.9999 22 17.5299 22 11.9999C22 6.46988 17.53 1.99988 12 1.99988ZM12 19.9999C7.59 19.9999 4 16.4099 4 11.9999C4 7.58988 7.59 3.99988 12 3.99988C16.41 3.99988 20 7.58988 20 11.9999C20 16.4099 16.41 19.9999 12 19.9999ZM15.59 6.99988L12 10.5899L8.41 6.99988L7 8.40988L10.59 11.9999L7 15.5899L8.41 16.9999L12 13.4099L15.59 16.9999L17 15.5899L13.41 11.9999L17 8.40988L15.59 6.99988Z" fill="black"/>
</svg>
