<svg width="20" height="20" viewBox="0 0 20 20" fill="none" xmlns="http://www.w3.org/2000/svg">
<path d="M4.16683 3.33325H19.1668V13.3333H4.16683V3.33325ZM11.6668 5.83325C12.3299 5.83325 12.9658 6.09664 13.4346 6.56548C13.9034 7.03433 14.1668 7.67021 14.1668 8.33325C14.1668 8.99629 13.9034 9.63218 13.4346 10.101C12.9658 10.5699 12.3299 10.8333 11.6668 10.8333C11.0038 10.8333 10.3679 10.5699 9.89906 10.101C9.43022 9.63218 9.16683 8.99629 9.16683 8.33325C9.16683 7.67021 9.43022 7.03433 9.89906 6.56548C10.3679 6.09664 11.0038 5.83325 11.6668 5.83325ZM7.50016 4.99992C7.50016 5.44195 7.32457 5.86587 7.01201 6.17843C6.69945 6.49099 6.27552 6.66659 5.8335 6.66659V9.99992C6.27552 9.99992 6.69945 10.1755 7.01201 10.4881C7.32457 10.8006 7.50016 11.2246 7.50016 11.6666H15.8335C15.8335 11.2246 16.0091 10.8006 16.3217 10.4881C16.6342 10.1755 17.0581 9.99992 17.5002 9.99992V6.66659C17.0581 6.66659 16.6342 6.49099 16.3217 6.17843C16.0091 5.86587 15.8335 5.44195 15.8335 4.99992H7.50016ZM0.833496 6.66659H2.50016V14.9999H15.8335V16.6666H0.833496V6.66659Z" fill="#E6E7ED"/>
</svg>
