<svg width="20" height="20" viewBox="0 0 20 20" fill="none" xmlns="http://www.w3.org/2000/svg">
<path d="M15.8337 18.3337C17.214 18.3335 18.3335 17.214 18.3337 15.8337L18.3337 4.16626C18.3335 2.78588 17.214 1.66647 15.8337 1.66626L4.16626 1.66626C2.78588 1.66647 1.66647 2.78588 1.66626 4.16626L1.66626 15.8337C1.66647 17.214 2.78588 18.3335 4.16626 18.3337L15.8337 18.3337ZM8.33374 3.33374L15.8337 3.33374C16.2936 3.33396 16.666 3.70635 16.6662 4.16626L16.6662 15.8337C16.666 16.2936 16.2936 16.666 15.8337 16.6662L8.33374 16.6662L8.33374 3.33374ZM4.16626 16.6662C3.70635 16.666 3.33396 16.2936 3.33374 15.8337L3.33374 4.16626C3.33396 3.70635 3.70635 3.33396 4.16626 3.33374L6.66626 3.33374L6.66626 16.6662H4.16626ZM13.9221 11.9104L12.0117 10L13.9221 8.0896L12.7441 6.9104L9.65454 10L12.7441 13.0896L13.9221 11.9104Z" fill="#01011A"/>
</svg>
