<svg width="16" height="16" viewBox="0 0 16 16" fill="none" xmlns="http://www.w3.org/2000/svg">
<mask id="mask0_159_68726" style="mask-type:alpha" maskUnits="userSpaceOnUse" x="0" y="0" width="16" height="16">
<rect width="16" height="16" fill="#D9D9D9"/>
</mask>
<g mask="url(#mask0_159_68726)">
<path d="M6.6665 4.00016C6.29984 4.00016 5.98595 3.86961 5.72484 3.6085C5.46373 3.34739 5.33317 3.0335 5.33317 2.66683C5.33317 2.30016 5.46373 1.98627 5.72484 1.72516C5.98595 1.46405 6.29984 1.3335 6.6665 1.3335C7.03317 1.3335 7.34706 1.46405 7.60817 1.72516C7.86928 1.98627 7.99984 2.30016 7.99984 2.66683C7.99984 3.0335 7.86928 3.34739 7.60817 3.6085C7.34706 3.86961 7.03317 4.00016 6.6665 4.00016ZM10.9998 12.0002C11.4665 12.0002 11.8609 11.8391 12.1832 11.5168C12.5054 11.1946 12.6665 10.8002 12.6665 10.3335C12.6665 9.86683 12.5054 9.47239 12.1832 9.15016C11.8609 8.82794 11.4665 8.66683 10.9998 8.66683C10.5332 8.66683 10.1387 8.82794 9.8165 9.15016C9.49428 9.47239 9.33317 9.86683 9.33317 10.3335C9.33317 10.8002 9.49428 11.1946 9.8165 11.5168C10.1387 11.8391 10.5332 12.0002 10.9998 12.0002ZM14.3998 14.6668L12.5998 12.8668C12.3554 13.0224 12.0998 13.1391 11.8332 13.2168C11.5665 13.2946 11.2887 13.3335 10.9998 13.3335C10.1665 13.3335 9.45817 13.0418 8.87484 12.4585C8.2915 11.8752 7.99984 11.1668 7.99984 10.3335C7.99984 9.50016 8.2915 8.79183 8.87484 8.2085C9.45817 7.62516 10.1665 7.3335 10.9998 7.3335C11.8332 7.3335 12.5415 7.62516 13.1248 8.2085C13.7082 8.79183 13.9998 9.50016 13.9998 10.3335C13.9998 10.6224 13.9609 10.9002 13.8832 11.1668C13.8054 11.4335 13.6887 11.6891 13.5332 11.9335L15.3332 13.7335L14.3998 14.6668ZM7.33317 14.6668V12.6502C7.49984 12.9168 7.69706 13.1613 7.92484 13.3835C8.15261 13.6057 8.39984 13.8057 8.6665 13.9835V14.6668H7.33317ZM4.6665 14.6668V6.00016C3.98873 5.94461 3.3165 5.86405 2.64984 5.7585C1.98317 5.65294 1.32206 5.51127 0.666504 5.3335L0.999837 4.00016C1.93317 4.25572 2.86928 4.43072 3.80817 4.52516C4.74706 4.61961 5.69984 4.66683 6.6665 4.66683C7.63317 4.66683 8.58595 4.61961 9.52484 4.52516C10.4637 4.43072 11.3998 4.25572 12.3332 4.00016L12.6665 5.3335C12.0109 5.51127 11.3498 5.65294 10.6832 5.7585C10.0165 5.86405 9.34428 5.94461 8.6665 6.00016V6.6835C8.0665 7.07239 7.58317 7.58627 7.2165 8.22516C6.84984 8.86405 6.6665 9.56683 6.6665 10.3335V10.5002C6.6665 10.5557 6.67206 10.6113 6.68317 10.6668H5.99984V14.6668H4.6665Z" fill="#01011A"/>
</g>
</svg>
