<svg width="16" height="16" viewBox="0 0 16 16" fill="none" xmlns="http://www.w3.org/2000/svg">
<path d="M8.73317 4.66699L9.33317 5.26699L3.2665 11.3337H2.6665V10.7337L8.73317 4.66699ZM11.1332 0.666992C10.9998 0.666992 10.7998 0.733659 10.6665 0.866992L9.4665 2.06699L11.9332 4.60033L13.1332 3.33366C13.3998 3.06699 13.3998 2.66699 13.1332 2.40033L11.5998 0.866992C11.4665 0.733659 11.2665 0.666992 11.1332 0.666992ZM8.73317 2.80033L1.33317 10.1337L1.33317 12.667H3.8665L11.1998 5.26699L8.73317 2.80033Z" fill="black"/>
<path d="M5.36713 14.667C6.53312 14.667 7.47911 13.7109 7.47911 12.6698C7.47911 12.6698 7.47178 12.0324 7.56711 11.8412C7.66977 11.6429 8.02177 11.6925 8.3811 11.8058C8.74043 11.9191 9.36376 12.2307 10.2438 12.7548C11.3437 13.3993 12.1797 13.7534 12.7664 13.8242C13.3457 13.895 13.8737 13.7605 14.3504 13.4135C14.9957 12.939 15.3257 12.3441 15.333 11.6288C15.3404 10.9135 15.047 10.1769 14.4384 9.44037C14.0644 8.98003 13.6391 8.63301 13.1697 8.37805C12.7004 8.13018 12.2604 8.0027 11.8571 8.0027C11.6811 7.98853 11.5271 8.03811 11.3951 8.14434C11.2631 8.25057 11.1971 8.3993 11.2044 8.58343C11.2044 8.76049 11.2631 8.90921 11.3951 9.03669C11.5271 9.15709 11.6664 9.23499 11.8351 9.24915C12.1431 9.28456 12.4217 9.37663 12.6711 9.52536C12.9204 9.67408 13.1697 9.89363 13.4044 10.1911C13.8151 10.6939 14.013 11.1401 13.9984 11.5296C13.9837 11.9191 13.8371 12.2237 13.5511 12.429C13.3237 12.599 13.0304 12.6415 12.6931 12.5636C12.3557 12.4857 11.7471 12.1812 10.8817 11.6642C9.64976 10.9276 8.76243 10.531 8.2051 10.4885C7.64777 10.439 7.17111 10.5664 6.76778 10.8568C6.40112 11.1259 6.16645 11.5367 6.07112 12.0962L5.99779 12.5211C5.90979 13.0381 5.43313 13.4205 4.8758 13.4205H1.31916C0.959835 13.4205 0.666504 13.6967 0.666504 14.0367C0.666504 14.3766 0.959835 14.6528 1.31916 14.6528H4.45047L5.36713 14.667Z" fill="black"/>
</svg>
