<svg width="20" height="20" viewBox="0 0 20 20" fill="none" xmlns="http://www.w3.org/2000/svg">
<path d="M10.8333 10.8337H9.16666V5.83366H10.8333M10.8333 14.167H9.16666V12.5003H10.8333M9.99999 1.66699C8.90564 1.66699 7.82201 1.88254 6.81096 2.30133C5.79991 2.72012 4.88125 3.33395 4.10743 4.10777C2.54463 5.67057 1.66666 7.79019 1.66666 10.0003C1.66666 12.2105 2.54463 14.3301 4.10743 15.8929C4.88125 16.6667 5.79991 17.2805 6.81096 17.6993C7.82201 18.1181 8.90564 18.3337 9.99999 18.3337C12.2101 18.3337 14.3297 17.4557 15.8925 15.8929C17.4554 14.3301 18.3333 12.2105 18.3333 10.0003C18.3333 8.90598 18.1178 7.82234 17.699 6.8113C17.2802 5.80025 16.6664 4.88159 15.8925 4.10777C15.1187 3.33395 14.2001 2.72012 13.189 2.30133C12.178 1.88254 11.0943 1.66699 9.99999 1.66699Z" fill="black"/>
</svg>
