<svg width="16" height="16" viewBox="0 0 16 16" fill="none" xmlns="http://www.w3.org/2000/svg">
<path d="M8.66669 10.0001L7.33335 10.0001L7.33335 11.3334L8.66669 11.3334M8.00002 2.66675C10.94 2.66675 13.3334 5.06008 13.3334 8.00008C13.3334 10.9401 10.94 13.3334 8.00002 13.3334C5.06002 13.3334 2.66669 10.9401 2.66669 8.00008C2.66669 5.06008 5.06002 2.66675 8.00002 2.66675ZM8.00002 14.6667C8.8755 14.6667 9.74241 14.4943 10.5512 14.1593C11.3601 13.8242 12.095 13.3332 12.7141 12.7141C13.9643 11.4639 14.6667 9.76819 14.6667 8.00008C14.6667 6.23197 13.9643 4.53628 12.7141 3.28604C12.095 2.66698 11.3601 2.17592 10.5512 1.84088C9.7424 1.50585 8.8755 1.33341 8.00002 1.33341C6.23191 1.33342 4.53622 2.03579 3.28597 3.28604C2.03573 4.53628 1.33335 6.23197 1.33335 8.00008C1.33335 8.87556 1.50579 9.74247 1.84082 10.5513C2.17585 11.3601 2.66692 12.0951 3.28597 12.7141C3.90503 13.3332 4.63996 13.8242 5.4488 14.1593C6.25763 14.4943 7.12454 14.6667 8.00002 14.6667ZM8.66669 4.66675L7.33335 4.66675L7.33335 8.66675L8.66669 8.66675L8.66669 4.66675Z" fill="black"/>
</svg>
