<svg width="12" height="12" viewBox="0 0 12 12" fill="none" xmlns="http://www.w3.org/2000/svg">
<path d="M11.176 2.85094C10.5093 2.59672 9.84212 2.5 9.17525 2.5C7.0583 2.49984 4.94152 3.47406 2.82457 3.47406C2.29366 3.47406 1.76309 3.41281 1.23218 3.25969C1.17254 3.2425 1.11272 3.23438 1.05429 3.23438C0.758496 3.23438 0.5 3.4425 0.5 3.73141V8.68859C0.5 8.88594 0.624264 9.07297 0.823807 9.14891C1.4905 9.40328 2.15771 9.5 2.82457 9.5C4.94152 9.5 7.05848 8.52578 9.17543 8.52578C9.70634 8.52578 10.2369 8.58703 10.7678 8.74016C10.8275 8.75734 10.8873 8.76547 10.9457 8.76547C11.2415 8.76547 11.5 8.55734 11.5 8.26844V3.31141C11.4998 3.11391 11.3756 2.92703 11.176 2.85094V2.85094ZM1.32499 4.06594C1.67079 4.14469 2.03173 4.18422 2.40297 4.20547C2.30191 4.66469 1.85779 5.01078 1.32499 5.01078V4.06594ZM1.32499 8.51906V7.7725C1.91571 7.7725 2.39369 8.19859 2.41999 8.73187C2.03276 8.70359 1.67079 8.63328 1.32499 8.51906V8.51906ZM5.99991 7.5C5.24041 7.5 4.62494 6.82828 4.62494 6C4.62494 5.17156 5.24058 4.5 5.99991 4.5C6.75925 4.5 7.37489 5.17156 7.37489 6C7.37489 6.82859 6.75907 7.5 5.99991 7.5ZM10.6748 7.93406C10.3737 7.86547 10.0611 7.82703 9.74123 7.80219C9.84212 7.39469 10.2139 7.08531 10.6748 7.03219V7.93406ZM10.6748 4.24484C10.1439 4.18375 9.73195 3.78078 9.71562 3.28313C10.0515 3.31703 10.3703 3.38047 10.6748 3.48094V4.24484Z" fill="#003D88"/>
</svg>
