<svg width="24" height="24" viewBox="0 0 24 24" fill="none" xmlns="http://www.w3.org/2000/svg">
<path d="M17.617 5.59839H6.38298C2.87234 5.59839 0 8.47915 0 12.0001C0 15.521 2.87234 18.4018 6.38298 18.4018H17.617C21.1277 18.4018 24 15.521 24 12.0001C24 8.47915 21.1277 5.59839 17.617 5.59839Z" fill="white"/>
<path d="M17.617 6.11693C18.4053 6.11693 19.1713 6.27377 19.8926 6.58105C20.5915 6.87873 21.217 7.30444 21.7596 7.84538C22.2989 8.38632 22.7234 9.01689 23.0202 9.71787C23.3266 10.4413 23.483 11.2095 23.483 12.0001C23.483 12.7907 23.3266 13.5589 23.0202 14.2823C22.7234 14.9833 22.2989 15.6106 21.7596 16.1548C21.2202 16.6957 20.5915 17.1214 19.8926 17.4191C19.1713 17.7264 18.4053 17.8832 17.617 17.8832H6.38298C5.59468 17.8832 4.82872 17.7264 4.10745 17.4191C3.40851 17.1214 2.78298 16.6957 2.24043 16.1548C1.70106 15.6138 1.2766 14.9833 0.979787 14.2823C0.673404 13.5589 0.517021 12.7907 0.517021 12.0001C0.517021 11.2095 0.673404 10.4413 0.979787 9.71787C1.2766 9.01689 1.70106 8.38952 2.24043 7.84538C2.77979 7.30444 3.40851 6.87873 4.10745 6.58105C4.82872 6.27377 5.59468 6.11693 6.38298 6.11693H17.617ZM17.617 5.59839H6.38298C2.87234 5.59839 0 8.47915 0 12.0001C0 15.521 2.87234 18.4018 6.38298 18.4018H17.617C21.1277 18.4018 24 15.521 24 12.0001C24 8.47915 21.1277 5.59839 17.617 5.59839Z" fill="#3C4043"/>
<path d="M11.4448 12.4547V14.3912H10.832V9.60913H12.4565C12.8682 9.60913 13.2193 9.74677 13.5065 10.022C13.8001 10.2973 13.9469 10.6334 13.9469 11.0303C13.9469 11.4368 13.8001 11.7729 13.5065 12.045C13.2225 12.317 12.8714 12.4515 12.4565 12.4515H11.4448V12.4547ZM11.4448 10.1981V11.8657H12.4693C12.7118 11.8657 12.9161 11.7825 13.0756 11.6193C13.2384 11.456 13.3214 11.2576 13.3214 11.0335C13.3214 10.8126 13.2384 10.6174 13.0756 10.4542C12.9161 10.2845 12.715 10.2013 12.4693 10.2013H11.4448V10.1981Z" fill="#3C4043"/>
<path d="M15.5504 11.0112C16.0036 11.0112 16.361 11.1329 16.6227 11.3761C16.8844 11.6194 17.0153 11.9523 17.0153 12.3748V14.3913H16.4312V13.9368H16.4057C16.1535 14.3113 15.8153 14.4969 15.394 14.4969C15.0333 14.4969 14.7333 14.3913 14.4908 14.1769C14.2482 13.9624 14.127 13.6967 14.127 13.3767C14.127 13.0374 14.2546 12.7685 14.5099 12.57C14.7653 12.3684 15.1067 12.2692 15.5312 12.2692C15.895 12.2692 16.195 12.3364 16.428 12.4708V12.33C16.428 12.1155 16.345 11.9363 16.1759 11.7858C16.0067 11.6354 15.8089 11.5618 15.5823 11.5618C15.2408 11.5618 14.9695 11.7058 14.7716 11.9971L14.2323 11.6578C14.5291 11.2257 14.9695 11.0112 15.5504 11.0112ZM14.7589 13.3863C14.7589 13.5463 14.8259 13.6807 14.9631 13.7864C15.0972 13.892 15.2567 13.9464 15.4387 13.9464C15.6972 13.9464 15.927 13.8504 16.128 13.6583C16.3291 13.4663 16.4312 13.2422 16.4312 12.9829C16.2397 12.8325 15.9748 12.7557 15.6333 12.7557C15.3844 12.7557 15.177 12.8165 15.011 12.9349C14.8418 13.0598 14.7589 13.2102 14.7589 13.3863Z" fill="#3C4043"/>
<path d="M20.3457 11.1167L18.3031 15.8283H17.6712L18.4308 14.1799L17.084 11.1167H17.751L18.7212 13.4661H18.734L19.6787 11.1167H20.3457Z" fill="#3C4043"/>
<path d="M9.00629 12.0643C9.00629 11.8639 8.98842 11.6722 8.95523 11.4878H6.38672V12.5441L7.86597 12.5444C7.80597 12.8958 7.61289 13.1954 7.31704 13.3952V14.0805H8.19757C8.71172 13.6032 9.00629 12.8978 9.00629 12.0643Z" fill="#4285F4"/>
<path d="M7.31872 13.3952C7.07361 13.561 6.75797 13.6579 6.38872 13.6579C5.67542 13.6579 5.07031 13.1759 4.85361 12.5261H3.94531V13.2329C4.39531 14.1285 5.32021 14.743 6.38872 14.743C7.12723 14.743 7.74765 14.4994 8.19925 14.0801L7.31872 13.3952Z" fill="#34A853"/>
<path d="M4.76781 12.0019C4.76781 11.8194 4.79813 11.6431 4.85334 11.4773V10.7705H3.94504C3.75898 11.1408 3.6543 11.5589 3.6543 12.0019C3.6543 12.4449 3.7593 12.8629 3.94504 13.2332L4.85334 12.5265C4.79813 12.3607 4.76781 12.1843 4.76781 12.0019Z" fill="#FABB05"/>
<path d="M6.38872 10.3453C6.7918 10.3453 7.15276 10.4846 7.43776 10.7566L8.21808 9.97468C7.74414 9.53201 7.12627 9.26025 6.38872 9.26025C5.32053 9.26025 4.39531 9.87482 3.94531 10.7704L4.85361 11.4772C5.07031 10.8274 5.67542 10.3453 6.38872 10.3453Z" fill="#E94235"/>
</svg>
