<svg width="16" height="16" viewBox="0 0 16 16" fill="none" xmlns="http://www.w3.org/2000/svg">
<path d="M7.33398 5.9987H8.66732V4.66536H7.33398M8.00065 13.332C5.06065 13.332 2.66732 10.9387 2.66732 7.9987C2.66732 5.0587 5.06065 2.66536 8.00065 2.66536C10.9407 2.66536 13.334 5.0587 13.334 7.9987C13.334 10.9387 10.9407 13.332 8.00065 13.332ZM8.00065 1.33203C7.12517 1.33203 6.25827 1.50447 5.44943 1.8395C4.64059 2.17453 3.90566 2.6656 3.28661 3.28465C2.03636 4.5349 1.33398 6.23059 1.33398 7.9987C1.33398 9.76681 2.03636 11.4625 3.28661 12.7127C3.90566 13.3318 4.64059 13.8229 5.44943 14.1579C6.25827 14.4929 7.12517 14.6654 8.00065 14.6654C9.76876 14.6654 11.4645 13.963 12.7147 12.7127C13.9649 11.4625 14.6673 9.76681 14.6673 7.9987C14.6673 7.12322 14.4949 6.25631 14.1598 5.44747C13.8248 4.63864 13.3338 3.90371 12.7147 3.28465C12.0956 2.6656 11.3607 2.17453 10.5519 1.8395C9.74304 1.50447 8.87613 1.33203 8.00065 1.33203ZM7.33398 11.332H8.66732V7.33203H7.33398V11.332Z" fill="black"/>
</svg>
