<svg width="16" height="16" viewBox="0 0 16 16" fill="none" xmlns="http://www.w3.org/2000/svg">
<path d="M8.00002 11.3334C8.35364 11.3334 8.69278 11.1929 8.94283 10.9429C9.19288 10.6928 9.33335 10.3537 9.33335 10.0001C9.33335 9.26008 8.73335 8.66675 8.00002 8.66675C7.6464 8.66675 7.30726 8.80722 7.05721 9.05727C6.80716 9.30732 6.66669 9.64646 6.66669 10.0001C6.66669 10.3537 6.80716 10.6928 7.05721 10.9429C7.30726 11.1929 7.6464 11.3334 8.00002 11.3334ZM12 5.33341C12.3536 5.33341 12.6928 5.47389 12.9428 5.72394C13.1929 5.97399 13.3334 6.31313 13.3334 6.66675V13.3334C13.3334 13.687 13.1929 14.0262 12.9428 14.2762C12.6928 14.5263 12.3536 14.6667 12 14.6667H4.00002C3.6464 14.6667 3.30726 14.5263 3.05721 14.2762C2.80716 14.0262 2.66669 13.687 2.66669 13.3334V6.66675C2.66669 5.92675 3.26669 5.33341 4.00002 5.33341H4.66669V4.00008C4.66669 3.11603 5.01788 2.26818 5.643 1.64306C6.26812 1.01794 7.11597 0.666748 8.00002 0.666748C8.43776 0.666748 8.87121 0.752967 9.27563 0.920483C9.68005 1.088 10.0475 1.33353 10.357 1.64306C10.6666 1.95259 10.9121 2.32005 11.0796 2.72447C11.2471 3.12889 11.3334 3.56234 11.3334 4.00008V5.33341H12ZM8.00002 2.00008C7.46959 2.00008 6.96088 2.2108 6.58581 2.58587C6.21073 2.96094 6.00002 3.46965 6.00002 4.00008V5.33341H10V4.00008C10 3.46965 9.78931 2.96094 9.41423 2.58587C9.03916 2.2108 8.53045 2.00008 8.00002 2.00008Z" fill="black"/>
</svg>
