<svg width="20" height="20" viewBox="0 0 20 20" fill="none" xmlns="http://www.w3.org/2000/svg">
<g clip-path="url(#clip0_408_4114)">
<g clip-path="url(#clip1_408_4114)">
<path d="M16.6665 5.00008H13.3332V3.33341C13.3332 2.41675 12.5832 1.66675 11.6665 1.66675H8.33317C7.4165 1.66675 6.6665 2.41675 6.6665 3.33341V5.00008H3.33317C2.4165 5.00008 1.6665 5.75008 1.6665 6.66675V16.6667C1.6665 17.5834 2.4165 18.3334 3.33317 18.3334H16.6665C17.5832 18.3334 18.3332 17.5834 18.3332 16.6667V6.66675C18.3332 5.75008 17.5832 5.00008 16.6665 5.00008ZM8.33317 3.33341H11.6665V5.00008H8.33317V3.33341ZM13.3332 12.5001H10.8332V15.0001H9.1665V12.5001H6.6665V10.8334H9.1665V8.33341H10.8332V10.8334H13.3332V12.5001Z" fill="#E6E7ED"/>
</g>
</g>
<defs>
<clipPath id="clip0_408_4114">
<rect width="20" height="20" fill="white"/>
</clipPath>
<clipPath id="clip1_408_4114">
<rect width="20" height="20" fill="white"/>
</clipPath>
</defs>
</svg>
