<svg width="20" height="20" viewBox="0 0 20 20" fill="none" xmlns="http://www.w3.org/2000/svg">
<path d="M5.35889 1.66656C3.97831 1.66656 2.85911 2.78604 2.85889 4.16656L2.85889 15.8329C2.85889 17.2135 3.97818 18.3329 5.35889 18.3329L17.0251 18.3329C18.4056 18.3326 19.5251 17.2134 19.5251 15.8329L19.5251 4.16656C19.5249 2.78618 18.4055 1.66679 17.0251 1.66656L5.35889 1.66656ZM17.0251 3.33282C17.485 3.33305 17.8586 3.70665 17.8589 4.16656L17.8589 15.8329C17.8589 16.2929 17.4853 16.6664 17.0251 16.6666L15.1148 16.6666L15.1148 3.33282L17.0251 3.33282ZM13.4485 16.6666L5.35889 16.6666C4.8989 16.6666 4.52515 16.293 4.52515 15.8329L4.52515 4.16656C4.52536 3.70651 4.89879 3.33282 5.35889 3.33282L13.4485 3.33282L13.4485 16.6666ZM7.85889 8.08869L9.76929 9.99909L7.85889 11.9107L9.03686 13.0886L12.1265 9.99909L9.03686 6.9107L7.85889 8.08869Z" fill="#01011A"/>
</svg>
