<svg xmlns="http://www.w3.org/2000/svg" width="32" height="32" viewBox="0 0 32 32" fill="none">
  <path d="M14.6667 25.9003V16.767L6.66667 12.1337V21.267L14.6667 25.9003ZM17.3333 25.9003L25.3333 21.267V12.1337L17.3333 16.767V25.9003ZM14.6667 28.967L5.33333 23.6003C4.91111 23.3559 4.58333 23.0337 4.35 22.6337C4.11667 22.2337 4 21.7892 4 21.3003V10.7003C4 10.2114 4.11667 9.76699 4.35 9.36699C4.58333 8.96699 4.91111 8.64477 5.33333 8.40033L14.6667 3.03366C15.0889 2.78921 15.5333 2.66699 16 2.66699C16.4667 2.66699 16.9111 2.78921 17.3333 3.03366L26.6667 8.40033C27.0889 8.64477 27.4167 8.96699 27.65 9.36699C27.8833 9.76699 28 10.2114 28 10.7003V21.3003C28 21.7892 27.8833 22.2337 27.65 22.6337C27.4167 23.0337 27.0889 23.3559 26.6667 23.6003L17.3333 28.967C16.9111 29.2114 16.4667 29.3337 16 29.3337C15.5333 29.3337 15.0889 29.2114 14.6667 28.967ZM21.3333 11.367L23.9 9.90033L16 5.33366L13.4 6.83366L21.3333 11.367ZM16 14.467L18.6 12.967L10.7 8.40033L8.1 9.90033L16 14.467Z" fill="#086A74"/>
</svg>
