<svg width="16" height="16" viewBox="0 0 16 16" fill="none" xmlns="http://www.w3.org/2000/svg">
<path d="M13.1429 6.71429H9.28571V2.85714C9.28571 2.38384 8.90188 2 8.42857 2H7.57143C7.09813 2 6.71429 2.38384 6.71429 2.85714V6.71429H2.85714C2.38384 6.71429 2 7.09813 2 7.57143V8.42857C2 8.90188 2.38384 9.28571 2.85714 9.28571H6.71429V13.1429C6.71429 13.6162 7.09813 14 7.57143 14H8.42857C8.90188 14 9.28571 13.6162 9.28571 13.1429V9.28571H13.1429C13.6162 9.28571 14 8.90188 14 8.42857V7.57143C14 7.09813 13.6162 6.71429 13.1429 6.71429Z" fill="black"/>
</svg>
