<svg width="12" height="12" viewBox="0 0 12 12" fill="none" xmlns="http://www.w3.org/2000/svg">
<path d="M6.48869 1V1.01002V2.01152C8.68913 2.28192 10.248 4.27992 9.97731 6.47822C9.74674 8.30095 8.3132 9.74812 6.48869 9.96345V10.9649C9.24551 10.6895 11.2505 8.24587 10.9748 5.49174C10.7492 3.11317 8.85955 1.23535 6.48869 1ZM5.48621 1.01502C4.5088 1.11017 3.57649 1.48573 2.81461 2.11668L3.53138 2.85779C4.09277 2.40711 4.76944 2.11668 5.48621 2.01652V1.01502ZM2.10786 2.82273C1.4763 3.58388 1.10037 4.51027 1.00012 5.49174H2.0026C2.09784 4.78067 2.37853 4.10466 2.82463 3.53881L2.10786 2.82273ZM7.74179 4.23986L5.29574 6.68353L4.23311 5.62193L3.7018 6.15273L5.29574 7.74512L8.2731 4.77066L7.74179 4.23986ZM1.00513 6.49324C1.10538 7.47471 1.49134 8.4011 2.11287 9.16224L2.82463 8.44617C2.38354 7.88032 2.09784 7.20431 2.00761 6.49324H1.00513ZM3.53138 9.18227L2.81461 9.8683C3.57148 10.4992 4.50378 10.8948 5.48621 11V9.9985C4.77445 9.90836 4.09778 9.62293 3.53138 9.18227Z" fill="black"/>
</svg>