<svg width="16" height="16" viewBox="0 0 16 16" fill="none" xmlns="http://www.w3.org/2000/svg">
<path d="M10.6665 9.99984L5.99984 9.99984V8.6665H10.6665V9.99984ZM12.6665 7.33317L5.99984 7.33317V5.99984L12.6665 5.99984V7.33317ZM12.6665 4.6665L5.99984 4.6665L5.99984 3.33317L12.6665 3.33317V4.6665ZM1.99984 3.33317L1.99984 13.9998L12.6665 13.9998V15.3332L1.99984 15.3332C1.64622 15.3332 1.30708 15.1927 1.05703 14.9426C0.80698 14.6926 0.666504 14.3535 0.666504 13.9998L0.666504 3.33317H1.99984ZM13.9998 0.666504C14.3535 0.666504 14.6926 0.80698 14.9426 1.05703C15.1927 1.30708 15.3332 1.64622 15.3332 1.99984L15.3332 11.3332C15.3332 12.0732 14.7398 12.6665 13.9998 12.6665L4.6665 12.6665C4.31288 12.6665 3.97374 12.526 3.72369 12.276C3.47365 12.0259 3.33317 11.6868 3.33317 11.3332L3.33317 1.99984C3.33317 1.25984 3.9265 0.666504 4.6665 0.666504L13.9998 0.666504ZM4.6665 1.99984L4.6665 11.3332L13.9998 11.3332L13.9998 1.99984L4.6665 1.99984Z" fill="#01011A"/>
</svg>
