<svg width="20" height="20" viewBox="0 0 20 20" fill="none" xmlns="http://www.w3.org/2000/svg">
<path d="M2.31579 11.2499L1.68421 9.99992H6.10526L5.6 8.74992H1.47368L0.842105 7.49992H7.41053L6.90526 6.24992H0.724211L0 4.99992H3.15789C3.15789 4.55789 3.33534 4.13397 3.65119 3.82141C3.96704 3.50885 4.39542 3.33325 4.84211 3.33325H14.9474V6.66659H17.4737L20 9.99992V14.1666H18.3158C18.3158 14.8296 18.0496 15.4655 17.5758 15.9344C17.1021 16.4032 16.4595 16.6666 15.7895 16.6666C15.1195 16.6666 14.4769 16.4032 14.0031 15.9344C13.5293 15.4655 13.2632 14.8296 13.2632 14.1666H9.89474C9.89474 14.8296 9.62857 15.4655 9.1548 15.9344C8.68102 16.4032 8.03844 16.6666 7.36842 16.6666C6.6984 16.6666 6.05582 16.4032 5.58205 15.9344C5.10827 15.4655 4.84211 14.8296 4.84211 14.1666H3.15789V11.2499H2.31579ZM15.7895 15.4166C16.1245 15.4166 16.4458 15.2849 16.6827 15.0505C16.9195 14.816 17.0526 14.4981 17.0526 14.1666C17.0526 13.8351 16.9195 13.5171 16.6827 13.2827C16.4458 13.0483 16.1245 12.9166 15.7895 12.9166C15.4545 12.9166 15.1332 13.0483 14.8963 13.2827C14.6594 13.5171 14.5263 13.8351 14.5263 14.1666C14.5263 14.4981 14.6594 14.816 14.8963 15.0505C15.1332 15.2849 15.4545 15.4166 15.7895 15.4166ZM17.0526 7.91658H14.9474V9.99992H18.7032L17.0526 7.91658ZM7.36842 15.4166C7.70343 15.4166 8.02472 15.2849 8.26161 15.0505C8.4985 14.816 8.63158 14.4981 8.63158 14.1666C8.63158 13.8351 8.4985 13.5171 8.26161 13.2827C8.02472 13.0483 7.70343 12.9166 7.36842 12.9166C7.03341 12.9166 6.71212 13.0483 6.47523 13.2827C6.23835 13.5171 6.10526 13.8351 6.10526 14.1666C6.10526 14.4981 6.23835 14.816 6.47523 15.0505C6.71212 15.2849 7.03341 15.4166 7.36842 15.4166Z" fill="#E6E7ED"/>
</svg>
