<svg width="827" height="2458" viewBox="0 0 827 2458" fill="none" xmlns="http://www.w3.org/2000/svg">
<path d="M403.841 0.34446C433.538 -1.70944 457.806 5.32321 484.169 24.0913C515.09 44.4192 529.74 84.0652 532.118 130.385C533.455 156.525 534.17 164.765 541.793 185.95C544.532 201.051 533.859 241.033 527.857 251.685C511.912 279.991 492.909 317.512 500.256 355.121C503.752 372.999 511.735 384.087 524.764 389.913C556.485 404.096 589.253 416.937 621.533 428.503C645.681 436.536 671.138 436.22 693.58 454.176C703.142 461.831 712.767 469.576 720.906 480.374C750.001 522.619 775.394 587.678 788.431 643.182C795.091 671.553 796.683 718.393 799.075 748.287C798.891 759.323 802.685 774.137 802.777 784.224C802.89 797.438 803.109 799.251 804.928 811.724C807.058 826.328 808.509 840.81 810.809 855.575C817.299 897.301 823.584 939.629 826.606 982.167C829.09 1040.46 819.231 1098.12 813.81 1155.36C811.114 1183.83 807.957 1213.45 805.041 1241.26C801.227 1277.61 814.419 1306.57 802.805 1345.68C788.792 1398.59 758.593 1423.25 722.364 1440.86C702.109 1450.71 706.199 1461.32 699.009 1486.77C692.087 1511.28 683.346 1537.4 677.225 1562.41C671.513 1585.72 667.026 1610.51 661.138 1633.84C659.114 1641.94 656.913 1655.19 654.322 1662.22C650.104 1671.94 650.529 1685.88 648.469 1696.56C633.947 1771.97 657.585 1840.45 655.164 1914.55C653.353 1969.97 637.259 2034.01 625.978 2087.47C618.518 2122.81 606.897 2160.64 599.353 2196.34C598.893 2203.08 593.882 2213.48 592.997 2218.95C590.138 2233.46 595.97 2253.67 596.281 2265.97C596.423 2297.33 602.523 2323.15 617.315 2346.57C627.28 2362.34 663.098 2403.47 644.754 2427.22C621.491 2452.18 585.63 2453.18 557.915 2456.71C531.29 2460.11 521.622 2458.59 506.371 2429.3C494.926 2407.32 503.915 2381.13 499.753 2374.49C481.09 2344.72 483.511 2343.95 489.689 2306.01C491.671 2280.2 483.702 2258.42 495.655 2228.19C498.125 2221.94 493.009 2172.71 492.633 2162.57C492.188 2150.52 486.235 2123.92 484.693 2110.76C481.557 2091.6 479.045 2072.06 475.91 2053.34C470.333 2029.18 467.58 2003.89 463.284 1979.57C454.451 1929.62 464.508 1880.66 459.412 1831.49C457.452 1813.5 454.097 1795.86 449.405 1778.9C444.515 1761.27 438.039 1743.92 435.47 1725.25C430.133 1686.41 431.69 1646.12 429.362 1606.81C427.465 1574.78 421.23 1544.19 419.34 1512.45C418.796 1512.3 417.451 1512.37 416.828 1512.37C413.459 1519.77 412.652 1530.56 411.414 1539.62C408.321 1562.29 405.702 1587.19 404.959 1610.26C403.919 1642.85 405.802 1682.21 401.803 1714.18C396.374 1757.53 379.814 1786.59 376.714 1832.87C374.152 1871 378.136 1898.04 378.271 1935.38C378.306 1943.42 376.976 1947.75 376.091 1955.35C375.164 1963.3 375.143 1976 373.996 1983.47C371.222 2001.44 366.72 2020.6 364.045 2038.61C355.241 2097.86 344.25 2154.68 342.75 2215.53C342.105 2241.46 345.97 2234.22 349.515 2257.1C350.747 2265.01 347.385 2291.65 347.909 2302.2C348.574 2315.42 352.679 2321.74 354.003 2333.25C356.671 2356.46 343.478 2359.21 338.383 2375.45C335.509 2385.06 341.461 2404.9 338.192 2413.84C335.792 2420.42 329.911 2434.15 327.349 2440.45C323.542 2449.83 310.116 2454.64 302.741 2456.24C291.304 2458.71 278.983 2456.09 267.524 2454.11C244.934 2453.01 228.84 2449.07 207.36 2438.63C186.312 2428.39 184.939 2410.47 195.399 2383.47C196.829 2379.77 199.646 2379.41 201.443 2376.75C207.7 2367.48 213.652 2357.82 220.304 2349.06C227.155 2339.41 239.767 2307.7 240.737 2294C241.324 2285.68 240.171 2269.92 241.317 2261.14C242.301 2253.59 247.439 2241.84 246.448 2234.36C243.292 2210.49 235.853 2184.56 229.632 2161.97C227.049 2152.58 224.459 2138.45 221.911 2128.19C210.333 2082.7 200.184 2036.52 191.486 1989.77C188.796 1975.08 183.955 1949.98 182.872 1935.26C181.705 1909.21 180.268 1869.14 184.359 1844.23C194.684 1781.41 193.963 1727.32 180.898 1665.3C177.791 1652.51 173.545 1639.98 170.59 1627.07C159.599 1579.05 147.508 1532.9 131.829 1487.45C128.913 1481.31 124.011 1454 120.321 1451.27C97.0533 1434.09 68.5309 1425.29 48.7073 1397.95C39.6929 1385.52 24.8808 1351.35 22.0859 1334.78C17.5359 1307.8 25.4434 1269.71 23.7279 1242.06C21.6485 1231.18 18.5989 1218.44 18.0631 1207.14C14.8422 1139.23 0.89351 1070.88 0.0215824 1003.01C-0.540358 959.268 10.0098 907.821 15.4757 864.486C17.5967 847.672 22.0031 829.473 23.8517 812.338C27.8171 764.788 29.1803 714.386 35.4862 667.56C38.6363 644.165 49.0095 602.18 57.6304 580.655C75.7718 535.734 104.802 464.509 142.294 448.73C186.071 431.016 232.067 424.814 275.458 403.2C298.87 391.539 324.667 389.919 326.691 349.619C327.88 325.977 324.129 294.357 312.635 275.894C295.43 248.255 285.204 225.989 283.548 187.895C290.844 169.984 290.639 162.065 290.745 141.402C291.198 54.2587 345.191 4.82323 403.841 0.34446ZM420.607 1493.44C424.5 1505.93 425.937 1521.46 427.833 1534.82C431.606 1561.36 435.286 1587.89 436.383 1614.98C437.77 1649.37 436.531 1683.68 440.396 1717.87C444.274 1752.13 459.412 1782.32 463.935 1816.68C465.931 1831.86 467.389 1848.3 467.297 1863.76C467.134 1891.79 463.616 1920.95 465.959 1948.9C468.372 1977.58 473.624 2002.72 478.316 2030.42C487.708 2085.89 497.347 2140.9 501.105 2197.78C501.891 2209.72 503.801 2223.18 500.631 2234.54C498.968 2240.5 496.618 2246.29 495.882 2252.67C493.532 2273.01 498.246 2294.14 495.57 2314.12C493.971 2326.07 489.682 2337.88 493.511 2349.93C496.328 2358.79 503.179 2362.93 506.087 2370.69C510.652 2382.87 504.92 2399.3 507.114 2411.7C508.996 2422.34 514.814 2432.85 519.28 2441.7C525.048 2446.28 529.86 2449.19 536.499 2450.47C549.457 2452.97 599.098 2446.48 612.764 2441.21C621.257 2437.93 637.337 2431.3 641.802 2419.85C644.053 2414.06 643.961 2407.01 642.553 2400.87C637.415 2378.53 617.499 2360.55 607.145 2342.24C601.66 2332.55 594.851 2313.4 592.374 2301.43C589.954 2289.76 590.987 2276.99 589.671 2265.02C588.814 2257.3 586.847 2249.89 586.019 2242.2C584.526 2228.28 588.503 2208.48 592.473 2195.68C598.496 2176.28 602.636 2156.15 607.569 2136.1C616.317 2100.52 624.244 2065.2 631.696 2029.07C638.936 1993.97 646.551 1958.59 648.42 1921.9C650.175 1887.52 646.41 1853.44 642.326 1819.63C640.401 1803.71 638.108 1788.23 637.485 1772.03C636.268 1740.44 640.415 1699.68 646.396 1669.2C649.857 1651.56 654.62 1634.38 658.512 1616.91C664.747 1588.97 670.883 1560.45 678.513 1533.18C681.471 1522.6 685.328 1512.55 688.35 1501.99C693.602 1483.65 697.169 1463.45 704.154 1446.24C704.486 1445.96 704.805 1445.68 705.138 1445.41C715.279 1437.17 727.169 1432.19 737.948 1425.73C766.93 1408.36 790.172 1379.19 798.834 1334.96C804.97 1303.62 796.485 1268.61 798.679 1236.24C799.542 1223.54 802.946 1211.78 804.22 1199.24C806.159 1180.27 806.669 1161.01 808.644 1142C813.442 1095.64 819.96 1049.89 820.781 1002.88C821.248 976.087 817.547 949.619 813.952 923.44C811.149 903.061 808.821 882.514 805.791 862.216C802.741 841.825 798.884 821.532 796.704 800.901C796.124 795.371 796.449 789.807 795.996 784.28C792.366 739.976 791.049 693.856 783.222 650.518C777.723 620.045 767.871 589.767 756.661 562.637C733.376 506.266 713.036 463.548 666.057 446.304C649.503 440.229 632.644 437.945 616.006 432.803C600.124 427.893 584.533 420.39 568.906 414.082C552.295 407.373 508.147 395.991 499.293 373.714C492.669 357.041 490.907 334.78 494.764 316.532C497.722 302.497 503.476 286.585 508.94 274.118C513.016 264.808 518.862 257.133 523.066 247.96C531.148 230.306 540.427 198.341 533.371 178.325C531.7 173.595 529.351 168.785 528.303 163.703C525.557 150.397 526.619 132.847 525.345 118.838C520.476 65.1982 496.066 32.1209 460.34 16.0127C443.304 8.33106 424.535 3.87728 406.63 5.4682C369.233 8.71004 341.086 23.6573 315.849 63.2313C296.358 93.7807 298.467 126.284 296.28 164.629C295.742 174.173 288.764 188.255 289.903 199.263C291.672 214.533 297.476 233.716 302.692 247.391C305.983 256.013 312.763 264.174 316.889 272.066C328.383 295.455 335.524 322.096 332.197 350.888C331.631 355.763 331.405 370.197 329.437 373.471C317.717 392.975 294.801 400.796 278.056 407.972C257.213 416.899 237.219 424.478 216.32 432.351C191.139 440.098 162.626 442.605 138.924 457.133C119.261 470.154 102.899 495.775 90.6802 520.342C73.0944 555.699 57.2383 593.924 48.0562 635.227C35.8096 690.316 34.9638 748.071 30.8349 804.98C29.1548 828.141 24.4483 848.951 20.5225 871.443C18.2811 885.448 17.1848 900.351 15.0036 914.33C8.92629 953.298 4.74927 989.547 7.6524 1029.66C12.0354 1090.21 21.4574 1149.73 24.2501 1210.63C24.6493 1219.34 30.1973 1231.54 30.0883 1240.74C30.9666 1271.47 25.5078 1304.86 28.3451 1335.56C28.4343 1336.52 33.2115 1348.35 33.9129 1350.22C40.1487 1366.84 45.9174 1387.25 56.6389 1399.2C68.1566 1412.04 83.4641 1422.54 96.9719 1430.66C103.47 1435.08 118.907 1439.99 123.926 1446.6C131.808 1458.46 134.648 1478.08 139.51 1492.25C151.085 1526 161.078 1559.89 169.118 1595.6C176.439 1628.09 187.154 1659.25 192.278 1692.73C194.536 1707.49 196.341 1722.67 197.65 1737.64C203.099 1801.9 182.547 1862.16 188.959 1926.93C200.042 2032.95 232.095 2132.71 253.15 2234.92C254.644 2242.15 248.041 2256.19 247.255 2263.67C246.292 2270.81 248.041 2287.4 247.616 2293.01C245.316 2307.93 237.495 2329.99 231.593 2342.16C223.206 2359.46 192.144 2389.75 195.145 2412.16C199.341 2443.46 248.784 2445.88 266.095 2447.46C280.08 2448.74 291.389 2453.71 305.218 2449.59C319.069 2445.58 319.253 2441.51 326.196 2427.85C338.284 2404.06 327.71 2393.37 331.567 2374.09C334.49 2359.43 352 2357.26 346.536 2329.82C345.835 2326.3 343.089 2312.11 342.792 2308.35C341.688 2294.07 344.314 2272.23 343.075 2258.72C341.292 2239.3 334.54 2239.73 336.16 2216.21C337.215 2198.27 337.965 2180.13 339.501 2162.25C340.57 2151.02 343.167 2139.66 344.427 2128.55C350.931 2071.02 363.72 2015.19 370.082 1957.79C373.373 1928.08 370.464 1898.34 369.459 1868.58C368.879 1851.3 370.627 1834.2 372.375 1817.13C376.416 1778.83 392.503 1748.05 395.794 1709.3C398.724 1674.81 397.174 1640.39 398.462 1605.82C399.637 1574.28 405.738 1541.96 408.979 1510.68C410.076 1500.1 411.442 1490.83 420.607 1493.44Z" fill="white"/>
<path d="M168.499 799.751C171.281 799.517 173.778 799.652 175.972 802.425C185.243 814.162 185.958 876.574 186.241 893.351C186.34 899.281 186.673 905.981 185.774 911.8C182.681 931.869 174.684 950.538 168.031 968.588C158.6 994.166 148.665 1019.99 142.294 1047.48C136.642 1071.88 138.153 1099.7 135.508 1124.92C133.579 1143.31 129.363 1161.51 126.415 1179.64C123.658 1196.6 121.996 1216.34 117.746 1232.53C116.847 1235.96 115.473 1238.53 113.712 1241.15C110.713 1240.86 108.603 1240.37 106.188 1237.67C99.3931 1230.06 96.6959 1214.19 95.5791 1202.5C93.1502 1177.06 110.202 1097.21 116.109 1068.6C117.279 1062.93 119.091 1057.48 120.103 1051.82C125.563 1021.26 127.013 989.357 131.838 958.708C135.478 935.589 142.061 914.01 147.062 891.522C153.073 864.491 157.598 836.287 164.578 809.751C165.549 806.059 166.796 802.86 168.499 799.751ZM109.824 1233.3C110.976 1231.68 111.957 1230.47 112.554 1228.26C114.835 1219.85 115.612 1209.1 116.966 1200.24C119.365 1185.08 121.834 1169.95 124.371 1154.83C126.125 1144.09 128.199 1133.22 129.291 1122.3C132.172 1093.5 132.65 1063.85 139.008 1035.92C145.296 1008.31 156.115 982.307 165.726 956.778C170.185 944.939 175.385 932.479 178.201 919.66C179.631 913.16 179.673 906.231 179.702 899.471C179.758 884.242 180.226 821.8 172.388 811.483C172.047 811.034 171.676 810.632 171.32 810.206C165.927 820.576 163.798 842.661 161.044 855.68C154.874 884.845 149.283 915.76 140.483 943.579C135.535 959.218 135.738 982.757 133.936 1000.03C132.984 1009.15 131.361 1018.26 129.903 1027.24C123.613 1066.01 115.178 1103.94 108.666 1142.66C106.368 1156.33 103.656 1170.26 102.464 1184.22C101.343 1197.34 102.177 1209.61 105.661 1221.9C106.799 1225.91 108.236 1229.61 109.824 1233.3Z" fill="white"/>
<path d="M655.617 797.04L657.684 797.622C666.46 806.311 673.297 866.299 678.435 883.786C685.71 908.511 692.901 937.449 696.284 963.798C699.561 989.277 700.792 1015.21 705.067 1040.5C711.967 1081.29 735.966 1170.35 730.644 1209.86C729.017 1221.96 725.747 1233.97 718.365 1241.16C716.914 1240.53 715.605 1239.8 714.282 1238.74C711.918 1236.85 710.269 1233.31 709.448 1229.69C706.772 1217.95 705.859 1203.94 703.743 1191.71C699.851 1169.26 694.175 1147.07 691.846 1124.16C689.596 1102 691.492 1076.26 686.602 1055.06C683.778 1042.82 681.782 1027.53 677.6 1016.27L657.465 961.818C642.63 922.01 640.741 914.34 642.347 869.176C642.864 854.633 643.168 839.714 645.143 825.406C646.601 814.806 648.993 803.292 655.617 797.04ZM718.386 1232C729.462 1206.36 724.466 1179.21 720.177 1151.93C718.217 1139.42 716.412 1126.81 714.282 1114.36C708.882 1082.74 700.7 1052.24 695.824 1020.41C692.101 996.116 692.122 970.727 687.685 946.709C684.479 929.41 679.029 912.62 675.278 895.461L662.829 838.348C661.329 831.392 660.267 822.219 658.024 815.791C657.727 814.925 657.189 813.907 656.559 813.428C656.085 813.066 655.554 812.86 655.051 812.577C648.158 823.692 646.615 888.786 647.309 904.751C648.554 933.309 681.556 1002.42 689.362 1038.27C695.456 1066.29 695.123 1094.68 698.124 1123.27C700.714 1147.94 706.404 1172.51 710.693 1196.7C712.668 1207.82 712.979 1219.55 716.383 1230L718.386 1232Z" fill="white"/>
</svg>
