<svg width="1455" height="1499" viewBox="0 0 1455 1499" fill="none" xmlns="http://www.w3.org/2000/svg">
<path d="M74.1521 1439.98C54.7688 1426 41.0637 1412.5 37.0032 1387.31C33.6119 1366.27 33.3604 1344.47 32.75 1323.14L30.5083 1237.25L22.0185 928.519L6.76455 343.409L1.51792 170.497C0.726802 141.267 -0.321665 112.093 0.0942894 82.8385C0.320177 66.9518 2.87835 54.8833 11.8629 41.624C22.6807 25.3739 39.3469 14.3327 58.0989 10.9933C72.6947 8.4338 100.241 9.05459 115.819 8.98035L203.43 8.39916L517.469 6.63083L1289.67 1.18374C1314.5 1.02748 1340.05 -0.250858 1364.51 0.043981C1411.59 0.612447 1446.39 14.1269 1453.12 67.2841C1456.32 92.5653 1454.67 116.161 1453.73 141.571C1453.22 162.909 1453.13 184.493 1452.85 205.91L1449.03 515.262L1443.61 1081.9L1441.28 1280.4C1441.1 1292.43 1440.93 1304.79 1441.07 1316.49C1441.54 1356.49 1444.28 1401.07 1412.55 1430.03C1409.86 1432.48 1406.94 1434.93 1404.24 1437.42C1417.93 1457.67 1431.25 1478.21 1444.18 1499H1438.06C1422.03 1471.87 1400.08 1442.42 1382.8 1415.6C1361.63 1382.75 1340.59 1348.6 1318.47 1316.52C1312.96 1308.45 1307.3 1300.5 1301.49 1292.68C1296.33 1285.85 1262.86 1243.38 1261.66 1236.28C1255.96 1202.36 1242.94 1171.92 1234.27 1138.8C1233.15 1134.55 1231.29 1128.1 1233 1124.39L1234.08 1124.73C1238.76 1131.79 1242.11 1149.68 1246.25 1159.66C1250.12 1146.71 1252.08 1133.72 1254.66 1120.48C1261.94 1083.23 1266.1 1045.12 1278.66 1009.21C1283.88 994.31 1289.67 979.914 1295.43 965.25C1301.42 950.148 1306.7 934.762 1311.26 919.137C1321.46 884.357 1328.26 850.525 1335.83 815.186C1340.39 793.904 1347.5 774.234 1349.3 751.729C1351.37 725.858 1347.17 700.03 1349.28 674.406C1350.89 654.927 1356.95 633.292 1357.86 613.579C1358.63 596.796 1358.07 578.367 1347.04 565.312C1330.51 563.068 1328.46 555.766 1339.09 543.234C1337.56 542.967 1336.02 542.749 1334.48 542.577C1327.56 541.776 1319.25 539.861 1317.62 548.711C1313.82 568.789 1308.27 588.066 1303.24 607.812C1301.51 614.597 1301.48 634.19 1296.96 637.958L1295.43 637.081C1282.62 615.635 1327.37 538.982 1304.38 511.334L1303.66 510.481C1293.49 511.362 1288.43 512.731 1279.1 508.428C1275.13 503.15 1274 499.27 1271.6 493.058C1256.1 492.328 1247.68 576.857 1242.68 580.815L1241.7 580.136C1234.4 563.329 1255.57 513.801 1259.12 494.073C1261.68 479.852 1262.93 472.54 1261.58 457.44C1244.54 472.259 1235.34 466.79 1222.3 450.397C1223.74 445.544 1227.12 438.001 1222.78 434.283C1218.48 434.698 1214.68 441.316 1212.86 445.028C1198.8 473.617 1194.05 507.446 1192.96 539.254C1192.91 540.882 1192.64 541.984 1191.54 543.128L1190.12 542.865C1177.89 528.212 1204.98 451.146 1209.57 431.691C1210.75 426.684 1211.45 413.707 1206.53 411.213C1201.68 414.321 1198.06 419.21 1192.79 422.757C1185.22 421.536 1169.29 419.228 1165.24 412.573C1160.79 405.252 1164.81 398.816 1166.18 391.809L1165.3 390.445C1158.71 388.851 1154.56 394.448 1151.21 399.591C1145.63 408.316 1141.36 417.876 1138.55 427.939C1134.54 442.702 1133.11 458.346 1130.7 473.744C1127.54 493.08 1128.78 515.198 1113.68 529.652C1109.94 533.233 1102.81 535.264 1099.57 530.044C1084.5 506.042 1104.63 478.099 1112.53 455.814C1126.49 416.446 1124.78 347.597 1073.01 341.295C1044.32 337.8 1028.35 352.702 1014.95 377.426C1002.22 401.63 987.323 428.392 986.084 456.526C985.178 477.132 990.49 497.44 988.672 518.367C984.647 564.777 968.528 609.232 967.928 656.03C967.731 671.663 969.665 687.642 970.734 703.226C975.358 759.238 985.505 815.745 983.183 872.196C981.385 909.577 979.642 947.192 975.256 984.355C971.79 1013.77 966.689 1042.71 963.917 1072.26C962.058 1092.72 961.05 1113.25 960.894 1133.8C960.785 1148.63 961.187 1167.22 960.417 1181.73C959.484 1199.4 954.07 1219.33 952.443 1237.63C950.536 1259.03 952.463 1262.76 955.875 1282.04C962.651 1320.36 977.047 1341.86 1000.4 1371.51C1000.85 1353.84 996.742 1323.52 992.022 1307.48C982.352 1274.65 967.765 1242.73 971.674 1207.35C972.546 1199.47 978.225 1175.43 983.625 1170.9L984.79 1171.43C985.737 1178.33 979.056 1197.23 977.667 1205.4C970.326 1248.49 994.358 1285.2 1001.81 1325.98C1012.28 1383.21 998.11 1441.67 994.569 1499H988.692C989.319 1484.49 992.097 1465.08 993.575 1450.02C829.086 1451.95 664.591 1452.81 500.097 1452.58C501.641 1468.15 502.015 1483.37 502.536 1499H496.435C493.138 1437.06 489.185 1365.86 499.727 1304.51C504.576 1276.29 521.092 1247.91 522.859 1217.16C524.221 1193.45 515.046 1179.44 515.512 1157.17C524.885 1171.92 525.717 1188.46 527.699 1205.52C531.407 1237.41 514.156 1265.01 507.152 1294.7C502.573 1314.11 500.615 1336.32 498.314 1356.3C499.04 1355.49 499.751 1354.68 500.448 1353.84C527.69 1321.33 546.9 1278.07 545.764 1234.31C545.545 1211.59 540.465 1189.36 538.605 1166.77C536.083 1136.16 541.964 1105.97 540.321 1075.23C538.994 1050.41 535.125 1026.29 532.662 1001.66C529.398 965.731 527.059 929.721 525.645 893.662C523.543 833.011 531.258 781.934 538.222 722.026C541.046 697.732 544.495 665.42 544.592 641.338C544.764 599.003 529.881 553.282 524.084 510.962C519.467 486.742 523.626 460.474 521.436 436.447C517.669 395.097 484.122 315.342 435.119 320.876C378.441 327.278 389.587 404.285 402.534 443.054C409.848 461.625 417.451 475.175 420.888 494.982C424.36 514.993 406.82 516.031 403.512 509.34C383.691 469.253 393.642 413.864 364.849 377.674C353.404 363.287 329.302 370.243 318.248 382.037C313.696 386.821 311.318 393.391 311.706 400.104C312.653 414.655 321.478 429.873 324.877 443.067C328.243 456.13 340.055 514.404 331.136 524.158L329.971 524.054C328.807 521.383 328.499 500.457 327.806 494.686C325.385 473.86 322.144 452.517 314.682 432.934C313.067 428.697 304.275 412.86 299.459 416.128C298.55 419.112 302.446 427.23 302.052 431.729C300.616 448.156 278.152 453.34 268.706 441.401C267.441 439.803 266.953 438.116 267.293 436.047C280.82 441.125 281.558 448.379 296.424 435.718C296.621 434.686 296.796 433.648 296.95 432.608C301.524 400.744 263.546 422.787 261.04 440.269C258.318 456.42 266.998 467.963 270.294 483.228C275.224 506.066 281.903 531.74 283.504 555.065C283.651 557.199 282.132 559.395 280.593 560.569L279.435 560.191C276.195 555.048 276.481 549.196 275.373 543.606C271.979 526.499 268.815 474.83 254.008 465.386C237.621 463.626 253.517 498.646 214.385 481.287C207.007 512.188 210.319 533.241 219.853 563.251C224.165 576.821 232.071 612.779 220.001 623.707L218.96 623.21C218.182 617.962 218.413 607.252 218.019 601.219C216.988 585.445 215.735 570.078 212.834 554.441C210.738 545.471 207.301 529.375 199.466 523.904C191.087 518.051 184.724 534.459 182.405 538.842C179.86 540.451 172.904 543.372 169.815 544.75C150.267 585.854 162.4 608.476 164.845 650.713C166.33 676.365 160.213 707.079 163.172 732.957C165.988 757.583 170.992 783.582 175.216 808.067C180.844 840.711 186.277 872.443 195.005 904.388C203.377 935.031 217.802 970.355 224.086 1001.02C233.755 1048.21 238.949 1100.07 245.291 1148.16C251.715 1136.72 252.626 1125.01 261.388 1113.88C258.738 1136.6 245.051 1166.67 238.383 1189.11C234.477 1200.11 232.47 1218.37 226.43 1228.09C206.995 1259.33 182.836 1288.26 161.576 1318.17C143.88 1343.05 128.522 1368.82 111.582 1394.07C88.1943 1428.94 63.9146 1463.09 42.1124 1499H36.3129C42.0041 1486.8 65.9957 1450.55 74.1521 1439.98ZM549.994 1219.72C554.546 1284.98 534.722 1316.43 498.762 1365.3C497.851 1391.27 498.977 1420.16 499.902 1446.29L936.718 1444.55C955.344 1444.47 976.243 1444.95 994.596 1444.32C997.191 1423.47 998.689 1400.81 1000.19 1379.76C992.867 1369.27 984.776 1359.51 977.299 1349.14C960.145 1325.37 951.074 1298.41 948.323 1269.12C944.999 1233.68 952.075 1200.53 955.854 1165.73C958.483 1141.5 953.246 1113.6 955.97 1088.96C956.746 1079.93 958.755 1068.5 959.968 1059.27L966.893 1004.65C969.502 984.531 970.959 963.263 972.668 943.035C974.555 920.671 977.306 897.098 977.844 874.72C978.886 831.413 974.064 787.336 969.849 744.22C965.892 703.827 958.265 663.617 964.523 622.868C966.73 608.528 970.509 595.057 973.404 580.926C977.326 561.171 980.35 541.236 982.475 521.189C985.553 492.854 979.001 477.956 979.989 455.886C981.303 426.31 1011.46 362.237 1034.65 344.726C1046.27 336.086 1060.76 332.673 1074.83 335.26C1120.86 343.52 1130.83 396.294 1123.25 437.018C1121.86 444.509 1119.81 451.851 1117.12 458.95C1111.82 472.671 1092.63 508.225 1101.83 522.031C1102.93 523.689 1104.58 525.115 1106.51 525.558C1108.79 526.081 1110.93 525.195 1112.65 523.691C1131.26 507.485 1120.44 413.828 1152.25 390.272C1158.73 385.474 1166.37 384.443 1174.13 384.82C1186.15 385.405 1198.82 391.081 1206.76 400.602C1213.35 408.495 1215.36 417.851 1217.22 427.783C1247.23 423.734 1263.73 436.141 1266.91 466.867C1269.41 491.055 1270.27 482.761 1289.18 486.936C1308.87 491.28 1314.73 519.118 1317.09 537.437C1326.58 536.979 1337 536.467 1344.66 543.688C1356.47 554.814 1362.34 586.831 1362.98 602.592C1363.94 626.353 1357.26 650.713 1355.07 674.449C1352.78 699.287 1357.19 725.483 1355.23 749.947C1354.33 761.055 1348.87 782.316 1346.37 793.982C1339.39 828.239 1331.63 862.318 1323.1 896.186C1317.53 918.698 1310.62 940.836 1302.42 962.457C1295.39 980.805 1287.72 997.796 1281.71 1016.6C1271.15 1049.69 1267.28 1083.84 1260.91 1118.02C1257.96 1133.85 1251.54 1152.82 1251.07 1168.84C1250.99 1171.92 1255.8 1188.97 1256.96 1193.05C1259.61 1202.39 1262.69 1224.24 1266.24 1231.98C1279.78 1261.41 1305.91 1287.75 1324.32 1315.1C1340.48 1339.41 1356.36 1363.93 1371.95 1388.64C1380.26 1401.63 1392.19 1420.8 1401.23 1432.81C1436.25 1406.75 1435.05 1374.49 1435.71 1334.09L1439.36 937.619L1445.35 369.61L1447.54 180.378C1447.95 146.223 1448.34 111.914 1448.4 77.9881C1448.46 42.5092 1429.61 12.5608 1394.47 7.39656C1378.35 5.02866 1357.25 6.14509 1340.67 6.27378L190.034 14.2768L114.96 14.4882C98.2139 14.53 78.2258 14.093 61.7061 16.1434C46.6431 18.1302 32.7036 25.4595 22.2465 36.8903C2.71798 57.9589 4.92905 80.3504 5.62401 107.124L36.8086 1256.8C37.4192 1278.64 37.841 1300.48 38.0739 1322.33C38.4456 1366.06 35.7982 1409.43 77.3119 1435.59C106.2 1392.39 134.577 1348.61 163.959 1305.71C181.825 1279.63 206.709 1253.13 221.538 1224.83C227.368 1213.7 238.127 1173.19 240.45 1160.21C241.6 1153.78 235.326 1111.33 234.024 1102.28C230.119 1075.5 227.022 1048.43 222.703 1021.73C215.229 975.516 196.202 932.761 185.229 887.39C177.456 855.248 172.291 823.784 167.267 791.112C164.094 770.487 158.226 750.011 157.41 728.941C155.984 702.349 160.679 673.897 159.076 648.267C156.697 616.204 147.687 585.575 159.815 554.157C163.036 545.814 164.163 539.065 169.588 531.306C179.33 517.37 189.003 516.85 204.049 519.926C204.634 495.928 210.236 456.176 241.308 457.397C244.757 457.533 251.847 459.581 254.575 458.541C256.924 455.034 254.723 447.792 255.345 443.458C259.759 412.715 283.609 410.708 306.693 411.144C305.404 402.632 304.557 395.458 308.231 387.812C321.956 359.244 361.367 355.028 377.294 384.34C380.748 390.696 384.375 406.385 387.675 409.107C389.46 406.49 387.406 389.861 387.3 385.346C386.522 352.366 395.103 321.769 430.444 315.777C445.136 313.334 460.156 317.101 472.154 326.236C496.247 344.368 520.601 392.073 524.591 422.172C528.63 452.645 527.029 484.634 530.208 515.27C535.835 560.562 551.432 600.753 549.639 647.192C547.221 721.206 531.266 794.908 531.038 868.979C530.911 910.539 534.028 953.994 537.588 995.335C541.505 1040.81 551.026 1082.66 543.994 1128.63C539.579 1157.5 548.014 1190.5 549.994 1219.72ZM1277.42 489.5C1279.07 506.033 1286.62 509.985 1301.86 506.879C1299 495.585 1288.04 489.789 1277.42 489.5ZM238.204 462.649C232.009 465.466 221.9 469.095 219.318 475.81C219.941 480.722 222.031 480.491 226.215 482.04C232.822 480.227 245.652 474.211 244.757 465.728C242.875 463.243 241.278 462.736 238.204 462.649ZM1232.71 431.36C1228.32 442.078 1226.58 453.212 1239.38 460.243C1242.15 461.76 1248.75 462.191 1251.67 460.741C1267.16 448.1 1244.2 433.566 1232.71 431.36ZM393.136 437.361C392.835 440.536 393.465 446.343 394.168 449.352C396.678 460.1 400.44 502.057 410.43 506.78C412.996 506.375 411.765 506.815 414.08 504.953C420.045 487.013 403.098 459.722 396.556 442.988C395.897 441.303 394.325 438.754 393.136 437.361ZM1171.83 389.716C1159.22 412.543 1185.09 423.496 1197.24 414.673C1199.71 412.062 1202.65 408.771 1205.28 406.449C1194.2 396.234 1187.21 390.959 1171.83 389.716Z" fill="white"/>
<path d="M444.605 335.208C452.395 334.269 458.865 335.68 466.502 336.998C471.879 353.449 476.369 368.34 478.817 385.672C464.362 397.344 456.834 399.106 438.863 402.004C415.836 398.502 409.716 375.637 403.328 356.051C418.246 341.563 424.438 339.171 444.605 335.208ZM442.672 395.946C459.475 393.639 459.569 391.264 474.046 383.845C471.479 370.216 470.192 354.854 461.649 344.271C453.224 341.104 449.226 340.475 440.109 341.322C427.372 344.639 419.346 347.845 408.858 356.553C414.843 374.974 420.199 395.45 442.672 395.946Z" fill="white"/>
<path d="M351.494 372.479C363.541 381.681 354.94 398.614 341.908 400.325C332.724 401.53 328.586 398.564 321.408 393.654C319.92 391.202 319.298 389.916 320.786 387.457C325.064 387.742 333.683 398.163 339.85 397.564C351.688 396.412 351.624 381.476 351.494 372.479Z" fill="white"/>
<path d="M1046.58 356.809C1069.33 354.84 1085.08 355.713 1102.95 370.936C1098.79 391.709 1096.98 401.288 1082.46 416.428C1073.07 422.17 1054.54 416.957 1044.7 414.458C1033.71 411.82 1025.22 405.37 1028.59 392.384C1032.08 378.896 1033.59 363.417 1046.58 356.809ZM1032.98 404.427C1046.41 409.037 1060.26 414.859 1074.63 413.157C1081.26 411.93 1083.94 408.818 1087.55 403.037C1110.2 366.766 1082.75 360.668 1054.97 361.44L1045.15 362.421C1036.1 374.833 1034.99 389.398 1032.98 404.427Z" fill="white"/>
</svg>
