<svg width="336" height="234" viewBox="0 0 336 234" fill="none" xmlns="http://www.w3.org/2000/svg">
<g clip-path="url(#clip0_12622_7031)">
<path d="M270.645 -46.1712C292.584 -60.1052 318.504 -66.8313 329.108 -57.4669C339.588 -47.9631 334.626 -22.2294 336.319 3.80241C338.137 29.6947 346.611 55.8851 337.83 65.2517C329.057 74.7505 302.891 67.3005 279.133 55.3422C255.5 43.2445 234.275 26.6384 232.577 7.76803C230.878 -11.1024 248.837 -32.2444 270.645 -46.1712Z" fill="url(#paint0_linear_12622_7031)" fill-opacity="0.25"/>
<path d="M294.821 94.8658C276.797 88.0035 261.293 75.5751 262.155 65.1128C263.155 54.6629 280.661 46.1917 295.389 33.6307C309.98 21.0571 321.793 4.39383 331.26 5.45788C340.803 6.45893 347.987 25.3258 351.42 44.7616C354.715 64.185 354.261 84.1772 343.793 93.563C333.326 102.949 312.782 101.653 294.821 94.8658Z" fill="url(#paint1_linear_12622_7031)" fill-opacity="0.25"/>
</g>
<defs>
<linearGradient id="paint0_linear_12622_7031" x1="262.086" y1="122.181" x2="287.425" y2="-5.9948" gradientUnits="userSpaceOnUse">
<stop stop-color="#FDFAF7"/>
<stop offset="1" stop-color="#DEF4F7"/>
</linearGradient>
<linearGradient id="paint1_linear_12622_7031" x1="398.734" y1="25.233" x2="311.264" y2="67.0546" gradientUnits="userSpaceOnUse">
<stop stop-color="#FDFAF7"/>
<stop offset="1" stop-color="#DEF4F7"/>
</linearGradient>
<clipPath id="clip0_12622_7031">
<path d="M0 8C0 3.58172 3.58172 0 8 0H328C332.418 0 336 3.58172 336 8V226C336 230.418 332.418 234 328 234H8.00001C3.58173 234 0 230.418 0 226V8Z" fill="white"/>
</clipPath>
</defs>
</svg>
