<svg width="800" height="102" viewBox="0 0 800 102" fill="none" xmlns="http://www.w3.org/2000/svg">
<path d="M756.27 -47.803C778.209 -61.7371 804.129 -68.4631 814.733 -59.0987C825.213 -49.5949 820.251 -23.8612 821.944 2.17058C823.762 28.0629 832.236 54.2533 823.455 63.6199C814.682 73.1186 788.516 65.6687 764.758 53.7104C741.125 41.6126 719.9 25.0066 718.202 6.1362C716.503 -12.7342 734.462 -33.8762 756.27 -47.803Z" fill="url(#paint0_linear_12622_7078)" fill-opacity="0.25"/>
<path d="M780.446 93.2337C762.422 86.3714 746.918 73.943 747.78 63.4807C748.78 53.0309 766.286 44.5596 781.014 31.9986C795.605 19.425 807.418 2.76175 816.885 3.8258C826.428 4.82685 833.612 23.6937 837.045 43.1296C840.34 62.5529 839.886 82.5451 829.418 91.9309C818.951 101.317 798.407 100.02 780.446 93.2337Z" fill="url(#paint1_linear_12622_7078)" fill-opacity="0.25"/>
<defs>
<linearGradient id="paint0_linear_12622_7078" x1="747.711" y1="120.549" x2="773.05" y2="-7.62664" gradientUnits="userSpaceOnUse">
<stop stop-color="#FDFAF7"/>
<stop offset="1" stop-color="#DEF4F7"/>
</linearGradient>
<linearGradient id="paint1_linear_12622_7078" x1="884.359" y1="23.6009" x2="796.889" y2="65.4226" gradientUnits="userSpaceOnUse">
<stop stop-color="#FDFAF7"/>
<stop offset="1" stop-color="#DEF4F7"/>
</linearGradient>
</defs>
</svg>
